<?xml version="1.0" encoding="UTF-8" standalone="no"?>
<svg xmlns="http://www.w3.org/2000/svg" xmlns:xlink="http://www.w3.org/1999/xlink" width="250" height="121.33284">
  <defs>
    <linearGradient id="e">
      <stop offset="0" stop-color="#2b579e"/>
      <stop offset="1" stop-color="#21558f"/>
    </linearGradient>
    <linearGradient id="d">
      <stop offset="0" stop-color="#ffc606"/>
      <stop offset=".2" stop-color="#ffc606"/>
      <stop offset=".40000001" stop-color="#f9ba17"/>
      <stop offset=".60000002" stop-color="#dd812a"/>
      <stop offset=".80000001" stop-color="#c32f36"/>
      <stop offset="1" stop-color="#b22731"/>
    </linearGradient>
    <linearGradient id="c">
      <stop offset="0" stop-color="#275aa9"/>
      <stop offset=".2" stop-color="#2767af"/>
      <stop offset=".40000001" stop-color="#1279bc"/>
      <stop offset=".60000002" stop-color="#1090ca"/>
      <stop offset=".80000001" stop-color="#45a6d9"/>
      <stop offset="1" stop-color="#5abaea"/>
    </linearGradient>
    <linearGradient id="b">
      <stop offset="0" stop-color="#2762a8"/>
      <stop offset=".2" stop-color="#0176bc"/>
      <stop offset=".40000001" stop-color="#0195d5"/>
      <stop offset=".60000002" stop-color="#3ab3e8"/>
      <stop offset=".80000001" stop-color="#7dcbf1"/>
      <stop offset="1" stop-color="#93e0fa"/>
    </linearGradient>
    <linearGradient id="a">
      <stop offset="0" stop-color="#ffc61c"/>
      <stop offset=".2" stop-color="#ebcc33"/>
      <stop offset=".40000001" stop-color="#c8ca65"/>
      <stop offset=".60000002" stop-color="#97ca8f"/>
      <stop offset=".80000001" stop-color="#6dcad9"/>
      <stop offset="1" stop-color="#60ccf3"/>
    </linearGradient>
    <linearGradient xlink:href="#a" id="k" x1="173.5" x2="545.50305" y1="300.36218" y2="300.36218" gradientTransform="translate(-28.617303 802.71072) scale(.25789813)" gradientUnits="userSpaceOnUse"/>
    <linearGradient xlink:href="#b" id="i" x1="160" x2="764.04059" y1="271.36218" y2="271.36218" gradientTransform="translate(-28.617303 802.71072) scale(.25789813)" gradientUnits="userSpaceOnUse"/>
    <linearGradient xlink:href="#c" id="j" x1="120" x2="442" y1="153.86218" y2="151.86218" gradientTransform="translate(-28.617303 802.71072) scale(.25789813)" gradientUnits="userSpaceOnUse"/>
    <linearGradient xlink:href="#d" id="h" x1="119.50105" x2="745.90033" y1="179.08531" y2="179.08531" gradientTransform="translate(-28.617303 802.71072) scale(.25789813)" gradientUnits="userSpaceOnUse"/>
    <linearGradient xlink:href="#e" id="g" x1="263.75082" x2="463.15494" y1="-19.258144" y2="-99.161209" gradientTransform="translate(-28.617303 802.71072) scale(.25789813)" gradientUnits="userSpaceOnUse"/>
    <clipPath id="f" clipPathUnits="userSpaceOnUse">
      <path fill="#fff" stroke="#cfcfcf" stroke-opacity=".56571428" d="M-39.236572 960.33905h251.42862v122.68098h-251.42862z" opacity=".575"/>
    </clipPath>
  </defs>
  <g clip-path="url(#f)" transform="translate(38.5625 -960.33905)">
    <path fill="#2b57a0" d="M15.999072 857.73642c20.991208-28.80147 49.000646-46.16376 49.000646-46.16376l15.989684-10.83172 28.746098 9.95848s-45.658905 7.66735-93.736428 47.037z"/>
    <path fill="#c22634" d="M50.81532 813.37795c33.000353-5.13151 58.92018-2.67853 58.92018-2.67853l-10.628862-15.37264c-9.552098-3.26032-28.57168-3.19596-28.57168-3.19596l-20.49333 6.03114z"/>
    <path fill="url(#g)" d="M91.04743 777.27221c-24.57954 5.34605-37.966367 11.00241-51.149827 20.53011l10.917717 15.57563c11.804232-14.7239 27.142462-29.162 40.23211-36.10574z"/>
    <path fill="url(#h)" d="M2.165165 869.38422c68.121382-55.31174 131.531425-50.98686 131.531425-50.98686 23.0406 0 29.91969 3.84785 29.91969 3.84785s-7.56448-.5957-14.99784-.5957c0 0-27.43358-.83599-62.986873 14.42347l-32.237265 10.05803-33.01096 17.79497z"/>
    <path fill="url(#i)" d="M12.1306 880.94725c40.034103-30.77134 67.487668-27.56323 67.487668-27.56323 19.23653 0 46.284622 6.38669 62.016592 6.38669 11.65279 0 13.21376-3.21682 18.21704-9.6103 3.77206-5.00757 8.14185-14.28016 8.14185-21.33645-3.14154 6.90935-7.56675 10.17172-22.10204 10.17172-17.33205 0-27.09836-3.17396-60.260142-2.9227l-31.72147 9.80013-38.684718 21.92134z"/>
    <path fill="url(#j)" d="M2.2015225 869.21289C47.310457 835.0902 85.631568 836.07298 85.631568 836.07298S49.708685 850.61086 12.1306 880.94725z"/>
    <path fill="url(#k)" d="M16.256973 880.68936c17.559635-11.40027 38.153579-16.36241 57.670969-16.36241 20.440188 0 38.525038 7.33597 38.525038 7.33597l-30.174087 7.73695-8.25274-.7737c-14.459248-3.77153-36.6451-5.93701-57.76918 2.06319z"/>
    <path fill="#2babda" d="M43.85207 893.84216c33.148055-23.47793 68.60091-22.17924 68.60091-22.17924s-27.44655 9.02813-47.195365 36.10574l-8.768535 1.28949-9.54223-11.34752z"/>
    <path fill="#2b579e" d="M43.85207 893.84216c14.283025 33.07092 50.548035 49.51644 50.548035 49.51644 2.177595 1.1833 2.643985.68031 3.610572 0 0 0 4.300743-2.6103 13.454763-16.36277 0 0-45.571665-15.77705-67.61337-33.15367z"/>
    <path d="M-26.626652 963.0347c-7.42979 0-11.935848 1.74887-11.935848 1.74887l3.562218 4.9323 4.335912-1.13636s-3.939053 9.11207-6.769826 21.9697c0 0 3.151195.51579 6.834301.51579 8.403532 0 16.301474-2.75925 18.584784-9.94519l-1.66022-4.77918s-1.376383-1.44264-2.732108-1.8617c3.539002-2.29729 3.747582-4.98872 3.747582-4.98872l-1.402321-4.51321s-5.0182-1.9423-12.564474-1.9423zm1.813346 4.78723c3.381519 0 8.389749.62057 8.389749.62057-4.418399 3.59605-9.026435 4.41651-9.026435 4.41651l1.490973 4.44068c5.7771.0129 8.720181 2.42586 8.720181 2.42586-4.287538 5.96366-14.700193 5.48033-14.700193 5.48033 2.593918-10.06052 5.125725-17.38395 5.125725-17.38395zm17.134107 23.32842-3.30432-4.73888c3.3405067-12.45161 7.554899-21.3507 7.554899-21.3507 6.3766425-.34915 13.2668-.0684 13.2668-.0684l1.390507 4.65022s-6.4003595-.3584-11.2152345.61547c0 0-.8440925 2.13024-1.8464075 5.06053 5.274795-.50584 9.3232325-.0456 9.3232325-.0456l1.61846 4.30829c-8.3759075.3466-12.6513325 1.25376-12.6513325 1.25376l-1.2537353 5.31128s4.0046053.52181 11.5115703-.66106l1.641255 4.80978s-7.6610175.85531-16.035694.85531zm17.633784-.05642h6.415217c3.425185-15.45511 7.616053-26.07994 7.616053-26.07994h-5.383623s-4.516939 8.98523-8.647647 26.07994z"/>
    <path d="m10.450825 998.98172 6.33953 2.33578c.799035.3683 1.268345.2457 1.926995.05 6.90897-2.06108 8.152245-7.35168 10.337178-14.30947l6.045125-22.00385h-6.544165l-6.157158 20.97806c-2.29445 7.82939-4.562857 14.40376-11.947505 12.94938zm22.116588-7.88779h6.415217c3.425185-15.45511 7.616055-26.07994 7.616055-26.07994H41.21506s-4.516937 8.98523-8.647647 26.07994zm11.167217-.01245c2.737487-13.24479 8.595842-26.05138 8.595842-26.05138h5.25882s.655501 7.92172 3.523881 16.27568c2.57065-9.12542 5.96585-16.26762 5.96585-16.26762h5.367505s-4.429788 10.55019-7.603553 26.06611H58.38192s-3.016905-6.65094-4.385545-15.35256c0 0-2.298545 7.727-3.970867 15.33417zm32.289385.07978c-2.553105 0-3.544652-.68386-3.544652-.68386l-2.32511-3.35089s-.66106-1.11738-.66106-4.01195c0-6.5853 5.802002-18.47936 23.440117-18.47936l1.86976 5.49645c-10.613972-1.00474-21.54867 7.52883-21.54867 13.89472 0 1.51121 1.088342 2.27952 2.940578 2.27952 5.584922 0 10.815685-5.17505 11.853497-7.11211l5.881163 2.21114c-.5389 5.26605-3.360038 10.08611-8.762885 13.36282-.71769.49598-1.344205.7204-2.495005.22323l-3.922835-1.58401c3.993847-.59478 6.662052-5.55931 6.662052-5.55931s-4.967035 3.31361-9.38695 3.31361zm34.365775 1.69766-4.54545-6.56028c13.2341-8.79101 17.35432-16.51927 17.35432-16.51927s-6.50216.35658-12.42338 3.62444l-1.93759-5.56203s4.96177-3.3281 13.49475-3.3281c2.86202 0 4.78699.54709 4.78699.54709l1.77802 5.2201c-1.89294 4.8245-8.66216 12.92487-8.66216 12.92487 3.16864-.75229 9.07144-.0819 10.91889 2.23393l2.52658.98184-.20606 1.91782-1.40871-.16424s-2.38485-.15957-3.8296-.15957c-10.0331 0-17.8466 4.8434-17.8466 4.8434zm47.05029-.90264-4.52934-6.51193c13.39883-9.34248 17.13411-16.98904 17.13411-16.98904-6.27015.11499-12.12121 3.77176-12.12121 3.77176l-1.99871-5.6254s4.88027-3.11089 12.62089-3.11089c2.42374 0 5.27079.49967 5.27079.49967l1.80529 5.54481c-3.76443 7.1721-8.25274 12.34688-8.25274 12.34688 6.277-.57745 9.90621 1.45251 9.90621 1.45251l1.52996 1.68256c10.91333-7.92491 14.51368-14.33752 14.51368-14.33752s-6.16823.003-11.975 2.98194l-1.95035-5.49645s4.90317-2.99807 13.10444-2.99807c3.46688 0 5.14185.56416 5.14185.56416l1.85364 5.39974s-2.06026 4.43645-8.2057 11.80119c0 0 2.53101-.24413 4.59513-.24413 7.29683 0 8.27102 1.50489 8.27102 1.50489l7.28346 5.34553s-3.89325-1.74082-10.29981-1.74082c0 0-9.29139-.47438-20.72311 5.62031l-4.46785-6.67899s-10.00744.0204-18.50665 5.21729z"/>
    <g fill="none" stroke-width="9.5" color="#000" font-family="sans-serif" font-weight="400" transform="matrix(.45431702 0 0 .45431703 7.653165 1009.8898)">
      <path fill="#0885c2" d="M54 0C24.232886 0 0 24.232886 0 54s24.232886 54 54 54 54-24.232886 54-54S83.767114 0 54 0Zm0 9.5c24.632933 0 44.5 19.867067 44.5 44.5S78.632933 98.5 54 98.5 9.5 78.632933 9.5 54 29.367067 9.5 54 9.5Z" overflow="visible" style="line-height:normal;text-indent:0;text-align:start;text-decoration-line:none;text-transform:none;block-progression:tb"/>
      <path fill="#000" d="M171 0c-29.76711 0-54 24.232886-54 54s24.23289 54 54 54 54-24.232886 54-54-24.23289-54-54-54Zm0 9.5c24.63293 0 44.5 19.867067 44.5 44.5S195.63293 98.5 171 98.5 126.5 78.632933 126.5 54 146.36707 9.5 171 9.5z" overflow="visible" style="line-height:normal;text-indent:0;text-align:start;text-decoration-line:none;text-transform:none;block-progression:tb"/>
      <path fill="#ed334e" d="M288 0c-29.76711 0-54 24.232886-54 54s24.23289 54 54 54 54-24.232886 54-54-24.23289-54-54-54Zm0 9.5c24.63293 0 44.5 19.867067 44.5 44.5S312.63293 98.5 288 98.5 243.5 78.632933 243.5 54 263.36707 9.5 288 9.5z" overflow="visible" style="line-height:normal;text-indent:0;text-align:start;text-decoration-line:none;text-transform:none;block-progression:tb"/>
      <path fill="#fbb132" d="M112.5 50c-29.767114 0-54 24.232886-54 54 0 29.76711 24.232886 54 54 54 29.76711 0 54-24.23289 54-54 0-29.767114-24.23289-54-54-54zm0 9.5c24.63293 0 44.5 19.867067 44.5 44.5 0 24.63293-19.86707 44.5-44.5 44.5-24.632933 0-44.5-19.86707-44.5-44.5 0-24.632933 19.867067-44.5 44.5-44.5Z" overflow="visible" style="line-height:normal;text-indent:0;text-align:start;text-decoration-line:none;text-transform:none;block-progression:tb"/>
      <path fill="#1c8b3c" d="M229.5 50c-29.76711 0-54 24.232886-54 54 0 29.76711 24.23289 54 54 54s54-24.23289 54-54c0-29.767114-24.23289-54-54-54zm0 9.5c24.63293 0 44.5 19.867067 44.5 44.5 0 24.63293-19.86707 44.5-44.5 44.5S185 128.63293 185 104c0-24.632933 19.86707-44.5 44.5-44.5z" overflow="visible" style="line-height:normal;text-indent:0;text-align:start;text-decoration-line:none;text-transform:none;block-progression:tb"/>
      <path fill="#0885c2" d="m97.199219 21.599609-7.59961 5.701172c11.879331 15.839111 11.879331 37.559327 0 53.398438l7.59961 5.701172c14.387331-19.183111 14.387331-45.617671 0-64.800782z" overflow="visible" style="line-height:normal;text-indent:0;text-align:start;text-decoration-line:none;text-transform:none;block-progression:tb"/>
      <path fill="#000" d="m214.19922 21.599609-7.59961 5.701172c11.87933 15.839111 11.87933 37.559327 0 53.398438l7.59961 5.701172c14.38733-19.183111 14.38733-45.617671 0-64.800782zm-69.89844 68-5.70117 7.59961C147.94626 104.20921 159.31669 108 171 108v-9.5c-9.62915 0-18.9959-3.1229-26.69922-8.900391z" overflow="visible" style="line-height:normal;text-indent:0;text-align:start;text-decoration-line:none;text-transform:none;block-progression:tb"/>
      <path fill="#ed334e" d="m261.30078 89.599609-5.70117 7.59961C264.94626 104.20921 276.31669 108 288 108v-9.5c-9.62915 0-18.9959-3.1229-26.69922-8.900391z" overflow="visible" style="line-height:normal;text-indent:0;text-align:start;text-decoration-line:none;text-transform:none;block-progression:tb"/>
    </g>
    <path d="M145.33498 964.84805c-6.90588 2.10342-14.90973 9.18771-14.90973 16.79561 0 1.98289.41064 5.39518 3.94906 9.21986l6.28627 1.78111c7.47611-1.42533 14.21664-9.12222 14.21664-17.22276 0-5.51298-3.72341-8.60735-3.72341-8.60735l-5.81883-1.96647zm1.86977 3.56221s1.54738 2.97968 1.54738 6.88266c0 9.20265-10.47711 13.70084-10.47711 13.70084s-1.80528-3.02894-1.80528-6.93101c0-9.08191 10.73501-13.65249 10.73501-13.65249z"/>
  </g>
</svg>